Coordinates
version=1
nRows=14
nColumns=42
inDegrees=yes

Units are S.I. units (second, meters, Newtons, ...)
If the header above contains a line with 'inDegrees', this indicates whether rotational values are in degrees (yes) or radians (no).

endheader
time	pelvis_tilt	pelvis_list	pelvis_rotation	pelvis_tx	pelvis_ty	pelvis_tz	hip_flexion_r	hip_adduction_r	hip_rotation_r	knee_angle_r	knee_adduction_r	knee_angle_r_beta	ankle_angle_r	subtalar_angle_r	mtp_angle_r	hip_flexion_l	hip_adduction_l	hip_rotation_l	knee_angle_l	knee_adduction_l	knee_angle_l_beta	ankle_angle_l	subtalar_angle_l	mtp_angle_l	lumbar_extension	lumbar_bending	lumbar_rotation	arm_flex_r	arm_add_r	arm_rot_r	elbow_flex_r	pro_sup_r	wrist_flex_r	wrist_dev_r	arm_flex_l	arm_add_l	arm_rot_l	elbow_flex_l	pro_sup_l	wrist_flex_l	wrist_dev_l
      1.10000000	      8.25396239	     -3.26347299	     -3.95889463	      0.16577003	      1.01099703	     -0.19828548	    -20.98567068	      2.12871173	     -2.33099865	      6.52254373	      8.93993174	      0.11383986	     12.25228456	      6.60693333	     -7.57022721	     15.82522956	    -12.97510811	    -12.43227386	     22.89586244	     10.61362086	      0.39960818	      0.06494226	    -13.80483590	     -7.57022721	    -21.04508984	     -1.14349635	      9.44977835	     19.32778243	    -17.96104793	    -10.52911746	     34.10042700	     90.00000001	      0.00000000	      0.00000000	    -10.73514228	     -9.46077462	    -19.23109165	     11.99589578	     90.00000001	      0.00000000	      0.00000000
      1.11000000	      7.86471750	     -3.59320183	     -4.25469426	      0.17889613	      1.00816904	     -0.19754978	    -21.27203713	      2.36353886	     -2.21422050	      6.85503951	      8.89197777	      0.11964301	     12.71758285	      6.88421342	     -7.56839089	     16.12041558	    -13.27756725	    -13.00381401	     19.59756778	     10.92307223	      0.34204208	      0.20561962	    -12.24693527	     -7.56839089	    -20.68762756	     -0.99248694	      9.81894456	     19.82723388	    -18.45675490	    -10.03266490	     34.93402925	     90.00000001	      0.00000000	      0.00000000	    -11.51850388	     -9.36451195	    -19.58667505	     11.81884097	     90.00000001	      0.00000000	      0.00000000
      1.12000000	      7.71855012	     -3.64158444	     -4.59476482	      0.19238268	      1.00567229	     -0.19703660	    -21.85943804	      2.19965500	     -2.11661668	      7.10942648	      8.92713609	      0.12408290	     13.09382216	      7.32790448	     -7.56521995	     16.00815119	    -13.22781881	    -13.75665505	     16.29483291	     11.22224000	      0.28439849	      0.15037607	    -10.50058494	     -7.56521995	    -20.55760171	     -1.15938255	     10.09775034	     20.21326585	    -18.93344915	     -9.41463800	     35.89624729	     90.00000001	      0.00000000	      0.00000000	    -12.17603757	     -9.26897048	    -20.41545144	     11.53076816	     90.00000001	      0.00000000	      0.00000000
      1.13000000	      7.44109224	     -3.81023475	     -4.94875410	      0.20586070	      1.00296463	     -0.19637217	    -22.24998764	      2.20782096	     -1.99163940	      7.48709926	      8.87202630	      0.13067453	     13.47639742	      7.64920865	     -7.56160844	     16.07830721	    -13.40572670	    -14.40515687	     13.35273234	     11.67620972	      0.23304914	      0.30816715	     -8.54251172	     -7.56160844	    -20.30069052	     -1.20358966	     10.41188361	     20.60080055	    -19.35846628	     -8.91695598	     36.72428849	     90.00000001	      0.00000000	      0.00000000	    -12.79050998	     -9.16326613	    -21.25379495	     11.23644065	     90.00000001	      0.00000000	      0.00000000
      1.14000000	      7.08317110	     -4.12613622	     -5.25492677	      0.21942053	      1.00016646	     -0.19561109	    -22.51709250	      2.42032263	     -1.75976647	      7.97954129	      8.75848715	      0.13926927	     13.75638698	      7.79645927	     -7.55997920	     16.31101226	    -13.76501003	    -14.86595875	     10.84628436	     12.14971807	      0.18930337	      0.51753802	     -6.70336499	     -7.55997920	    -19.95958286	     -1.07848133	     10.71117094	     20.92816586	    -19.71891555	     -8.52208101	     37.47228709	     90.00000001	      0.00000000	      0.00000000	    -13.46033543	     -9.09690247	    -21.60714262	     11.09864218	     90.00000001	      0.00000000	      0.00000000
      1.15000000	      6.91210363	     -4.17490396	     -5.63680771	      0.23331406	      0.99769342	     -0.19491576	    -23.00426139	      2.26005238	     -1.50335488	      8.39684248	      8.71057705	      0.14655255	     13.96041804	      7.99965203	     -7.55778522	     16.29066883	    -13.80706955	    -15.57156744	      8.68760699	     12.52803962	      0.15162735	      0.72095837	     -4.66011007	     -7.55778522	    -19.79453196	     -1.28261676	     10.97424125	     21.15815329	    -20.02668732	     -8.05615275	     38.30597530	     90.00000001	      0.00000000	      0.00000000	    -14.00964285	     -9.04189420	    -22.29122580	     10.88646334	     90.00000001	      0.00000000	      0.00000000
      1.16000000	      6.54112410	     -4.30986779	     -5.92764022	      0.24730810	      0.99498706	     -0.19427601	    -23.22472097	      2.28768300	     -1.18740108	      8.93414277	      8.55375884	      0.15593021	     14.08116245	      8.01333260	     -7.55698640	     16.63142031	    -13.98226650	    -15.83342010	      7.15904226	     12.94675791	      0.12494886	      0.77996712	     -3.26365742	     -7.55698640	    -19.38593366	     -1.33194688	     11.15533329	     21.37064023	    -20.25358870	     -7.83387738	     38.85206102	     90.00000001	      0.00000000	      0.00000000	    -14.62175790	     -9.00714012	    -22.57094840	     10.82258532	     90.00000001	      0.00000000	      0.00000000
      1.17000000	      6.63444184	     -4.02760421	     -6.39367300	      0.26185381	      0.99296862	     -0.19402018	    -23.91428287	      1.61006392	     -0.91326800	      9.48930982	      8.59737427	      0.16561970	     14.20096586	      8.21044220	     -7.55330957	     16.43330408	    -13.59481939	    -16.82156817	      6.22006007	     13.05855214	      0.10856053	      1.31575424	     -1.11971105	     -7.55330957	    -19.42258658	     -1.88650070	     11.34631659	     21.44576391	    -20.49180685	     -7.46138074	     39.63066259	     90.00000001	      0.00000000	      0.00000000	    -14.90142682	     -8.91482903	    -24.01233249	     10.33682921	     90.00000001	      0.00000000	      0.00000000
      1.18000000	      6.43582310	     -4.00435609	     -6.74109570	      0.27628142	      0.99069940	     -0.19342977	    -24.22293531	      1.41071702	     -0.52388155	     10.19701348	      8.42443105	      0.17797146	     14.15274504	      8.11950336	     -7.55258459	     16.62730397	    -13.52911628	    -16.79365047	      5.66819284	     13.23386128	      0.09892863	      1.46191005	     -0.44552613	     -7.55258459	    -19.17489790	     -2.14550244	     11.51582422	     21.45938915	    -20.61791452	     -7.27671270	     40.22567282	     90.00000001	      0.00000000	      0.00000000	    -15.36966368	     -8.90724861	    -24.23943607	     10.29102481	     90.00000001	      0.00000000	      0.00000000
      1.19000000	      6.31068912	     -3.94252129	     -6.92219247	      0.29105074	      0.98860877	     -0.19310768	    -24.68062920	      1.21677900	     -0.13126735	     10.75612535	      8.24446781	      0.18772980	     14.01804479	      8.15748538	     -7.55231547	     16.91806991	    -13.37298169	    -16.54178136	      5.86493419	     13.31537825	      0.10236241	      1.45066058	     -0.31115057	     -7.55231547	    -18.96964576	     -2.39277628	     11.48644912	     21.51066426	    -20.60151700	     -7.25702143	     40.50610123	     90.00000001	      0.00000000	      0.00000000	    -15.80083121	     -8.90432517	    -24.29922314	     10.24221687	     90.00000001	      0.00000000	      0.00000000
      1.20000000	      6.22239200	     -3.80645074	     -7.19337164	      0.30611223	      0.98670686	     -0.19272281	    -25.11102496	      0.91293642	      0.33895540	     11.42767228	      8.02771445	      0.19945051	     13.81687040	      8.16900285	     -7.55204451	     17.06096446	    -13.14065831	    -16.12180710	      6.26448269	     13.35010946	      0.10933585	      1.40731522	     -0.23302682	     -7.55204451	    -18.77263699	     -2.75739641	     11.51761930	     21.42381433	    -20.57929930	     -7.22047235	     40.80405609	     90.00000001	      0.00000000	      0.00000000	    -16.20426137	     -8.91590011	    -24.37868553	     10.23154070	     90.00000001	      0.00000000	      0.00000000
      1.21000000	      6.76805505	     -2.62271992	     -7.96652163	      0.32164974	      0.98573848	     -0.19305752	    -25.84130245	     -1.08588418	      0.48871429	     12.64316360	      8.31913877	      0.22066483	     13.48847406	      7.87228525	     -7.54856715	     16.25539862	    -11.55298675	    -16.42998406	      6.59144415	     12.93440748	      0.11504240	      0.80060455	     -1.27266329	     -7.54856715	    -19.13829300	     -4.35373414	     11.74312386	     20.85040818	    -20.74665296	     -6.92403146	     42.06355228	     90.00000001	      0.00000000	      0.00000000	    -16.00875426	     -8.91711441	    -26.24874567	      9.64810384	     90.00000001	      0.00000000	      0.00000000
      1.22000000	      6.80474654	     -2.17540746	     -8.31879116	      0.33714712	      0.98428111	     -0.19296095	    -26.14728191	     -1.81880261	      0.79976066	     13.73863157	      8.15909569	      0.23978436	     12.92830787	      7.60030727	     -7.54766951	     16.37275902	    -10.99567003	    -16.13546268	      7.87065292	     12.84954606	      0.13736881	      0.20550418	     -2.09660258	     -7.54766951	    -19.01210394	     -5.05535891	     11.79711805	     20.39972172	    -20.70100234	     -6.93028127	     42.63193319	     90.00000001	      0.00000000	      0.00000000	    -16.15532431	     -8.97725397	    -26.47232363	      9.58500444	     90.00000001	      0.00000000	      0.00000000
      1.23000000	      6.99751717	     -1.38484371	     -8.69109863	      0.35285507	      0.98330272	     -0.19319842	    -26.47130852	     -3.02473176	      0.90028139	     15.01919610	      8.15335406	      0.26213442	     12.27213273	      7.44986652	     -7.54349273	     16.08858720	     -9.89306676	    -15.03575454	      8.56603530	     12.64886038	      0.14950552	     -1.34336858	     -4.41164237	     -7.54349273	    -19.01000949	     -6.12913038	     11.74889428	     19.88157851	    -20.55747081	     -7.02467989	     43.07024582	     90.00000001	      0.00000000	      0.00000000	    -15.94049057	     -9.05924789	    -27.90036182	      9.10583163	     90.00000001	      0.00000000	      0.00000000
